<svg id="Group_18" data-name="Group 18" xmlns="http://www.w3.org/2000/svg" xmlns:xlink="http://www.w3.org/1999/xlink" width="27" height="27" viewBox="0 0 27 27">
  <defs>
    <clipPath id="clip-path">
      <rect id="Rectangle_54" data-name="Rectangle 54" width="27" height="27" fill="#f76800"/>
    </clipPath>
  </defs>
  <g id="Group_17" data-name="Group 17" clip-path="url(#clip-path)">
    <path id="Path_2" data-name="Path 2" d="M72.618,106.23l4.589,3.848-4.589,3.848Zm13.469-.55-6.308,5.29a.03.03,0,0,1-.037,0l-6.307-5.29Zm.754,8.247-4.589-3.848,4.589-3.848Zm-5.29-3.26,4.869,4.083H73.04l4.869-4.083,1.574,1.32a.4.4,0,0,0,.49,0Zm-9.131-5.82H87.04a.636.636,0,0,1,.634.634v9.468a.636.636,0,0,1-.634.634H72.419a.636.636,0,0,1-.634-.634v-9.468a.636.636,0,0,1,.634-.634" transform="translate(-66.191 -96.677)" fill="#f76800" fill-rule="evenodd"/>
    <path id="Path_3" data-name="Path 3" d="M22.4,4.676a12.533,12.533,0,1,0,3.671,8.862A12.494,12.494,0,0,0,22.4,4.676M13.538,0A13.538,13.538,0,1,1,3.965,3.965,13.5,13.5,0,0,1,13.538,0" fill="#f76800"/>
  </g>
</svg>
